<svg fill="none" height="20" viewBox="0 0 108 20" width="108" xmlns="http://www.w3.org/2000/svg"><path d="M33.12 17.1903C32.0631 17.1903 31.1502 16.9667 30.3816 16.5196C29.6174 16.0677 29.0295 15.4295 28.6177 14.605C28.2059 13.7759 28 12.8 28 11.6774C28 10.5734 28.2059 9.60448 28.6177 8.77067C29.0341 7.9322 29.6152 7.28005 30.361 6.81423C31.1068 6.34376 31.983 6.10852 32.9896 6.10852C33.6393 6.10852 34.2524 6.21566 34.829 6.42993C35.41 6.63955 35.9225 6.96562 36.3663 7.40815C36.8147 7.85068 37.167 8.41432 37.4233 9.09907C37.6795 9.77917 37.8076 10.5897 37.8076 11.5306V12.3062H29.1668V10.6013H35.4261C35.4215 10.1169 35.3185 9.686 35.1172 9.30869C34.9159 8.92672 34.6345 8.62627 34.273 8.40733C33.9161 8.1884 33.4998 8.07893 33.0239 8.07893C32.516 8.07893 32.0699 8.2047 31.6856 8.45624C31.3012 8.70312 31.0015 9.0292 30.7865 9.43446C30.576 9.83506 30.4685 10.2753 30.4639 10.7551V12.2433C30.4639 12.8675 30.576 13.4032 30.8002 13.8504C31.0244 14.2929 31.3378 14.633 31.7405 14.8706C32.1431 15.1035 32.6144 15.2199 33.1543 15.2199C33.5158 15.2199 33.8429 15.1687 34.1358 15.0662C34.4286 14.9591 34.6825 14.803 34.8976 14.5981C35.1126 14.3931 35.2751 14.1392 35.3849 13.8364L37.7047 14.102C37.5582 14.7262 37.2791 15.2712 36.8673 15.737C36.4601 16.1981 35.9385 16.5568 35.3025 16.813C34.6665 17.0646 33.939 17.1903 33.12 17.1903Z" fill="currentColor"></path><path d="M41.7145 6.24826L43.8421 10.21L46.0041 6.24826H48.6327L45.455 11.6145L48.6876 16.9807H46.0727L43.8421 13.1168L41.6322 16.9807H38.9967L42.2087 11.6145L39.079 6.24826H41.7145Z" fill="currentColor"></path><path d="M53.5502 17.1973C52.8822 17.1973 52.2805 17.0762 51.7452 16.834C51.2144 16.5871 50.7935 16.2238 50.4824 15.744C50.1758 15.2642 50.0225 14.6726 50.0225 13.9692C50.0225 13.3636 50.1323 12.8629 50.352 12.4669C50.5716 12.071 50.8713 11.7542 51.251 11.5167C51.6308 11.2791 52.0586 11.0998 52.5345 10.9786C53.0149 10.8529 53.5114 10.762 54.0238 10.7061C54.6415 10.6409 55.1425 10.5827 55.5269 10.5315C55.9112 10.4756 56.1903 10.3917 56.3642 10.2799C56.5426 10.1635 56.6319 9.98413 56.6319 9.7419V9.69998C56.6319 9.1736 56.4786 8.76601 56.172 8.4772C55.8655 8.1884 55.4239 8.04399 54.8474 8.04399C54.2389 8.04399 53.7561 8.17908 53.3992 8.44925C53.0469 8.71943 52.809 9.03851 52.6855 9.40651L50.3657 9.07112C50.5487 8.41898 50.8507 7.87397 51.2716 7.4361C51.6926 6.99357 52.2073 6.66284 52.8159 6.44391C53.4244 6.22031 54.097 6.10852 54.8337 6.10852C55.3416 6.10852 55.8471 6.16907 56.3505 6.29019C56.8538 6.4113 57.3136 6.6116 57.73 6.89109C58.1463 7.16592 58.4804 7.54091 58.732 8.01604C58.9882 8.49118 59.1164 9.0851 59.1164 9.7978V16.9807H56.7279V15.5064H56.6456C56.4946 15.8045 56.2818 16.084 56.0073 16.3449C55.7373 16.6011 55.3965 16.8084 54.9847 16.9667C54.5774 17.1205 54.0993 17.1973 53.5502 17.1973ZM54.1954 15.3387C54.6941 15.3387 55.1265 15.2386 55.4925 15.0383C55.8586 14.8333 56.14 14.5631 56.3367 14.2277C56.5381 13.8923 56.6387 13.5267 56.6387 13.1307V11.866C56.5609 11.9312 56.4282 11.9918 56.2406 12.0477C56.0576 12.1036 55.8517 12.1525 55.6229 12.1944C55.3942 12.2364 55.1677 12.2736 54.9435 12.3062C54.7193 12.3388 54.5248 12.3668 54.3601 12.3901C53.9895 12.4413 53.6578 12.5252 53.3649 12.6416C53.0721 12.7581 52.841 12.9211 52.6717 13.1307C52.5024 13.3357 52.4178 13.6012 52.4178 13.9273C52.4178 14.3931 52.5848 14.7448 52.9188 14.9824C53.2528 15.2199 53.6784 15.3387 54.1954 15.3387Z" fill="currentColor"></path><path d="M66.9542 6.24826V8.2047H60.7224V6.24826H66.9542ZM62.2803 16.9807V5.23511C62.2803 4.51309 62.4267 3.91218 62.7196 3.43239C63.017 2.9526 63.4151 2.59392 63.9138 2.35635C64.4125 2.11878 64.9661 2 65.5747 2C66.0048 2 66.3868 2.03494 66.7209 2.10481C67.0549 2.17468 67.3019 2.23757 67.4621 2.29347L66.9679 4.2499C66.8627 4.21729 66.73 4.18469 66.5699 4.15208C66.4097 4.11482 66.2313 4.09618 66.0345 4.09618C65.5724 4.09618 65.2453 4.21031 65.0531 4.43856C64.8655 4.66215 64.7717 4.98357 64.7717 5.4028V16.9807H62.2803Z" fill="currentColor"></path><path d="M73.102 17.1903C72.0725 17.1903 71.1803 16.9598 70.4253 16.4986C69.6703 16.0374 69.0847 15.3923 68.6683 14.5631C68.2565 13.734 68.0506 12.7651 68.0506 11.6564C68.0506 10.5478 68.2565 9.57653 68.6683 8.74272C69.0847 7.9089 69.6703 7.26142 70.4253 6.80026C71.1803 6.3391 72.0725 6.10852 73.102 6.10852C74.1315 6.10852 75.0237 6.3391 75.7787 6.80026C76.5336 7.26142 77.117 7.9089 77.5288 8.74272C77.9452 9.57653 78.1534 10.5478 78.1534 11.6564C78.1534 12.7651 77.9452 13.734 77.5288 14.5631C77.117 15.3923 76.5336 16.0374 75.7787 16.4986C75.0237 16.9598 74.1315 17.1903 73.102 17.1903ZM73.1157 15.164C73.6739 15.164 74.1406 15.008 74.5158 14.6959C74.891 14.3791 75.1701 13.9552 75.3531 13.4242C75.5407 12.8932 75.6345 12.3016 75.6345 11.6494C75.6345 10.9926 75.5407 10.3987 75.3531 9.86767C75.1701 9.33198 74.891 8.90576 74.5158 8.589C74.1406 8.27224 73.6739 8.11386 73.1157 8.11386C72.5438 8.11386 72.0679 8.27224 71.6881 8.589C71.313 8.90576 71.0316 9.33198 70.844 9.86767C70.6609 10.3987 70.5694 10.9926 70.5694 11.6494C70.5694 12.3016 70.6609 12.8932 70.844 13.4242C71.0316 13.9552 71.313 14.3791 71.6881 14.6959C72.0679 15.008 72.5438 15.164 73.1157 15.164Z" fill="currentColor"></path><path d="M80.2621 16.9807V6.24826H82.6711V8.037H82.7809C82.9731 7.41747 83.3025 6.94 83.7692 6.60461C84.2405 6.26457 84.7781 6.09454 85.3821 6.09454C85.5194 6.09454 85.6726 6.10153 85.8419 6.1155C86.0158 6.12482 86.1599 6.14112 86.2743 6.16442V8.49118C86.1691 8.45391 86.0021 8.42131 85.7733 8.39336C85.5491 8.36075 85.3318 8.34444 85.1213 8.34444C84.6683 8.34444 84.2611 8.4446 83.8996 8.6449C83.5427 8.84054 83.2613 9.11305 83.0554 9.46241C82.8495 9.81177 82.7466 10.2147 82.7466 10.6712V16.9807H80.2621Z" fill="currentColor"></path><path d="M92.0892 17.1903C91.0369 17.1903 90.1332 16.9551 89.3782 16.4846C88.6278 16.0141 88.049 15.3643 87.6418 14.5352C87.2392 13.7014 87.0379 12.7418 87.0379 11.6564C87.0379 10.5664 87.2438 9.60448 87.6556 8.77067C88.0673 7.9322 88.6484 7.28005 89.3988 6.81423C90.1538 6.34376 91.046 6.10852 92.0755 6.10852C92.9311 6.10852 93.6884 6.26922 94.3472 6.59064C95.0107 6.9074 95.5392 7.35691 95.9327 7.93918C96.3261 8.5168 96.5504 9.19223 96.6053 9.96549H94.2306C94.1345 9.44843 93.9057 9.01755 93.5442 8.67285C93.1873 8.32348 92.7092 8.1488 92.1098 8.1488C91.6019 8.1488 91.1558 8.28855 90.7715 8.56804C90.3871 8.84287 90.0874 9.23882 89.8724 9.75587C89.6619 10.2729 89.5567 10.8925 89.5567 11.6145C89.5567 12.3458 89.6619 12.9747 89.8724 13.5011C90.0829 14.0228 90.378 14.4257 90.7577 14.7099C91.1421 14.9893 91.5928 15.1291 92.1098 15.1291C92.4759 15.1291 92.803 15.0592 93.0913 14.9195C93.3841 14.7751 93.6289 14.5678 93.8256 14.2976C94.0224 14.0274 94.1574 13.699 94.2306 13.3124H96.6053C96.5458 14.0717 96.3261 14.7448 95.9464 15.3317C95.5666 15.914 95.0496 16.3705 94.3953 16.7012C93.741 17.0273 92.9723 17.1903 92.0892 17.1903Z" fill="currentColor"></path><path d="M103.312 17.1903C102.255 17.1903 101.343 16.9667 100.574 16.5196C99.8098 16.0677 99.2219 15.4295 98.8101 14.605C98.3983 13.7759 98.1924 12.8 98.1924 11.6774C98.1924 10.5734 98.3983 9.60448 98.8101 8.77067C99.2265 7.9322 99.8075 7.28005 100.553 6.81423C101.299 6.34376 102.175 6.10852 103.182 6.10852C103.832 6.10852 104.445 6.21566 105.021 6.42993C105.602 6.63955 106.115 6.96562 106.559 7.40815C107.007 7.85068 107.359 8.41432 107.616 9.09907C107.872 9.77917 108 10.5897 108 11.5306V12.3062H99.3591V10.6013H105.618C105.614 10.1169 105.511 9.686 105.31 9.30869C105.108 8.92672 104.827 8.62627 104.465 8.40733C104.109 8.1884 103.692 8.07893 103.216 8.07893C102.708 8.07893 102.262 8.2047 101.878 8.45624C101.494 8.70312 101.194 9.0292 100.979 9.43446C100.768 9.83506 100.661 10.2753 100.656 10.7551V12.2433C100.656 12.8675 100.768 13.4032 100.993 13.8504C101.217 14.2929 101.53 14.633 101.933 14.8706C102.336 15.1035 102.807 15.2199 103.347 15.2199C103.708 15.2199 104.035 15.1687 104.328 15.0662C104.621 14.9591 104.875 14.803 105.09 14.5981C105.305 14.3931 105.467 14.1392 105.577 13.8364L107.897 14.102C107.751 14.7262 107.472 15.2712 107.06 15.737C106.653 16.1981 106.131 16.5568 105.495 16.813C104.859 17.0646 104.131 17.1903 103.312 17.1903Z" fill="currentColor"></path><g clip-path="url(#clip0_4223_751)"><path d="M15.9673 7.65477L20 10.0146L16.0135 12.3249L15.9815 16.9332L8.01574 12.2631L11.8956 10.0145L15.9673 7.65477Z" fill="#F76453"></path><path d="M11.8956 10.0145L3.94043 5.3999L3.95631 0.714289L7.94458 3.02779L11.9346 0.754659L11.8956 10.0145Z" fill="#F76453"></path><path d="M8.0083 16.9885L3.95973 19.3143L3.95791 14.6904L-4.13533e-05 12.3553L8.00468 7.76552L8.0083 16.9885Z" fill="#F76453"></path></g><defs><clipPath id="clip0_4223_751"><rect fill="white" height="20" width="20"></rect></clipPath></defs></svg>
